<?xml version="1.0" encoding="UTF-8"?><svg id="Capa_1" xmlns="http://www.w3.org/2000/svg" viewBox="0 0 60 60"><defs><style>.cls-1{fill:#2e83ff;}</style></defs><path class="cls-1" d="M30.13,35.9c0,1.03-.21,1.93-.62,2.71-.41,.78-.98,1.43-1.7,1.96-.72,.53-1.56,.93-2.51,1.2-.95,.28-1.96,.41-3.04,.41H10.5V17.82h13.04c.85,0,1.61,.18,2.3,.55,.69,.37,1.27,.84,1.75,1.42,.48,.58,.85,1.25,1.12,1.99,.26,.74,.39,1.49,.39,2.25,0,1.19-.3,2.31-.89,3.35-.6,1.04-1.46,1.81-2.61,2.32,1.4,.41,2.5,1.15,3.31,2.21,.81,1.06,1.22,2.4,1.22,4Zm-14.9-14.04v6.14h6.32c.8,0,1.48-.28,2.04-.82,.56-.55,.84-1.3,.84-2.27s-.26-1.68-.77-2.23c-.51-.55-1.15-.82-1.9-.82h-6.52Zm10.13,13.15c0-.43-.07-.85-.22-1.25-.15-.4-.35-.75-.6-1.05-.25-.3-.55-.53-.89-.7-.34-.17-.72-.26-1.13-.26h-7.28v6.42h7.04c.43,0,.84-.08,1.22-.24,.38-.16,.7-.38,.98-.67,.27-.29,.49-.62,.65-1.01,.16-.39,.24-.8,.24-1.24Z"/><path class="cls-1" d="M40.39,42.18c-1.4,0-2.66-.24-3.79-.71-2.24-.95-3.82-2.56-4.74-4.81-.43-1.09-.65-2.23-.65-3.43s.21-2.41,.63-3.51c.9-2.28,2.48-3.9,4.74-4.87,1.14-.49,2.42-.73,3.84-.73s2.69,.24,3.81,.73c3.68,1.6,5.41,5.17,5.25,9.05-.01,.27-.04,.49-.08,.67h-13.47c.07,.69,.23,1.3,.5,1.83,.27,.53,.61,.99,1.03,1.36,.42,.38,.9,.67,1.43,.86,.53,.2,1.09,.3,1.66,.3,.89,0,1.72-.22,2.51-.65,.79-.43,1.32-1,1.61-1.71l3.82,1.06c-.64,1.33-1.67,2.42-3.08,3.28-1.41,.85-3.09,1.28-5.04,1.28Zm4.52-10.51c-.11-1.31-.59-2.36-1.45-3.14-.85-.79-1.89-1.18-3.11-1.18-.6,0-1.16,.11-1.68,.32-.52,.21-.98,.5-1.38,.88-.4,.38-.73,.83-.98,1.36-.26,.53-.4,1.12-.45,1.76h9.05Z"/><path class="cls-1" d="M34.53,18.97h11.66v2.89h-11.66v-2.89Z"/></svg>