<?xml version="1.0" encoding="UTF-8"?><svg id="Capa_1" xmlns="http://www.w3.org/2000/svg" xmlns:xlink="http://www.w3.org/1999/xlink" viewBox="0 0 60 60"><defs><style>.cls-1{fill:url(#Degradado_sin_nombre_18-2);}.cls-2{fill:url(#Degradado_sin_nombre_18);}.cls-3{fill:url(#Degradado_sin_nombre_18-3);}</style><linearGradient id="Degradado_sin_nombre_18" x1="22.42" y1="2.5" x2="53.06" y2="37.85" gradientTransform="matrix(1, 0, 0, 1, 0, 0)" gradientUnits="userSpaceOnUse"><stop offset="0" stop-color="#ff0"/><stop offset=".5" stop-color="#f0f"/><stop offset="1" stop-color="#1b1464"/></linearGradient><linearGradient id="Degradado_sin_nombre_18-2" x1="13.22" y1="10.48" x2="43.85" y2="45.83" xlink:href="#Degradado_sin_nombre_18"/><linearGradient id="Degradado_sin_nombre_18-3" x1="13.14" y1="10.54" x2="43.78" y2="45.9" xlink:href="#Degradado_sin_nombre_18"/></defs><path class="cls-2" d="M38.74,19.39c-1.07,0-1.93,.87-1.93,1.93s.87,1.93,1.93,1.93,1.93-.87,1.93-1.93-.87-1.93-1.93-1.93Z"/><path class="cls-1" d="M30.14,21.87c-4.48,0-8.13,3.65-8.13,8.13s3.65,8.13,8.13,8.13,8.13-3.65,8.13-8.13-3.65-8.13-8.13-8.13Zm0,13.33c-2.87,0-5.21-2.34-5.21-5.21s2.34-5.21,5.21-5.21,5.21,2.34,5.21,5.21-2.33,5.21-5.21,5.21Z"/><path class="cls-3" d="M36.59,46.5h-13.18c-5.47,0-9.91-4.45-9.91-9.91v-13.18c0-5.47,4.45-9.91,9.91-9.91h13.18c5.47,0,9.91,4.45,9.91,9.91v13.18c0,5.47-4.45,9.91-9.91,9.91Zm-13.18-29.9c-3.75,0-6.81,3.05-6.81,6.81v13.18c0,3.75,3.05,6.81,6.81,6.81h13.18c3.75,0,6.81-3.05,6.81-6.81v-13.18c0-3.75-3.05-6.81-6.81-6.81h-13.18Z"/></svg>