<?xml version="1.0" encoding="UTF-8"?><svg id="Capa_1" xmlns="http://www.w3.org/2000/svg" viewBox="0 0 60 60"><defs><style>.cls-1{fill:#fff;}</style></defs><path class="cls-1" d="M38.74,19.39c-1.07,0-1.93,.87-1.93,1.93s.87,1.93,1.93,1.93,1.93-.87,1.93-1.93-.87-1.93-1.93-1.93Z"/><path class="cls-1" d="M30.14,21.87c-4.48,0-8.13,3.65-8.13,8.13s3.65,8.13,8.13,8.13,8.13-3.65,8.13-8.13-3.65-8.13-8.13-8.13Zm0,13.33c-2.87,0-5.21-2.34-5.21-5.21s2.34-5.21,5.21-5.21,5.21,2.34,5.21,5.21-2.33,5.21-5.21,5.21Z"/><path class="cls-1" d="M36.59,46.5h-13.18c-5.47,0-9.91-4.45-9.91-9.91v-13.18c0-5.47,4.45-9.91,9.91-9.91h13.18c5.47,0,9.91,4.45,9.91,9.91v13.18c0,5.47-4.45,9.91-9.91,9.91Zm-13.18-29.9c-3.75,0-6.81,3.05-6.81,6.81v13.18c0,3.75,3.05,6.81,6.81,6.81h13.18c3.75,0,6.81-3.05,6.81-6.81v-13.18c0-3.75-3.05-6.81-6.81-6.81h-13.18Z"/></svg>