<?xml version="1.0" encoding="UTF-8"?><svg id="Capa_1" xmlns="http://www.w3.org/2000/svg" viewBox="0 0 60 60"><defs><style>.cls-1{fill:#fff;}</style></defs><path class="cls-1" d="M15.27,30.95l.12-.17,7.59-11.84c.12-.18,.35-.18,.47,.06,1.28,2.86,2.33,6.36,1.87,8.58-.23,.93-.82,2.16-1.52,3.27-.06,.18-.17,.35-.29,.47-.06,.06-.12,.12-.23,.12h-7.82c-.18-.06-.29-.29-.18-.47Z"/><path class="cls-1" d="M49.05,33.17v1.87c0,.12-.06,.18-.17,.23-.58,.23-2.63,1.17-3.44,2.33-2.16,2.98-3.79,7.24-7.41,7.24h-15.23c-5.37,0-9.74-4.38-9.74-9.8v-.17c0-.12,.12-.23,.23-.23h8.58c.18,0,.29,.18,.29,.29-.06,.53,.06,1.11,.29,1.63,.53,1.05,1.58,1.63,2.68,1.63h4.2v-3.27h-4.14c-.23,0-.35-.23-.23-.41,.06-.06,.12-.12,.18-.23,.41-.58,.93-1.4,1.52-2.39,.41-.64,.76-1.4,1.05-2.1,.06-.12,.12-.23,.17-.41,.06-.23,.17-.47,.23-.64l.17-.53c.12-.58,.17-1.23,.17-1.93,0-.23,0-.53-.06-.82,0-.29-.06-.58-.06-.88,0-.23-.06-.53-.12-.76-.06-.41-.12-.76-.23-1.17l-.06-.12c-.06-.23-.12-.53-.23-.76-.23-.82-.53-1.63-.82-2.33-.12-.29-.23-.58-.35-.88-.17-.41-.35-.82-.53-1.17-.06-.18-.17-.29-.23-.47-.06-.18-.18-.35-.23-.53l-.18-.35-.53-.93c-.06-.12,.06-.29,.18-.23l3.21,.88h0l.41,.12,.47,.12,.18,.06v-1.93c0-.93,.76-1.69,1.63-1.69,.47,0,.88,.18,1.17,.47,.29,.29,.47,.7,.47,1.17v2.8l.35,.12s.06,0,.06,.06c.06,.06,.18,.17,.35,.29,.12,.12,.23,.23,.41,.35,.29,.23,.7,.58,1.11,.93,.12,.12,.23,.18,.29,.29,.53,.47,1.11,1.05,1.69,1.69,.17,.18,.29,.35,.47,.53,.17,.18,.29,.41,.47,.58,.18,.23,.41,.53,.58,.76,.06,.12,.18,.23,.23,.41,.23,.35,.41,.7,.64,1.05,.06,.17,.17,.35,.23,.53,.23,.47,.41,.93,.47,1.46,.06,.12,.06,.23,.06,.29h0c.06,.12,.06,.29,.06,.47,.06,.53,0,.99-.06,1.52-.06,.23-.12,.41-.17,.64-.06,.18-.12,.41-.23,.64-.17,.41-.41,.82-.64,1.23-.06,.12-.18,.29-.29,.47-.12,.18-.23,.29-.29,.47-.12,.18-.29,.35-.41,.53-.12,.17-.23,.35-.41,.53-.17,.23-.41,.47-.58,.7-.12,.12-.23,.29-.41,.41-.12,.12-.23,.29-.41,.41-.18,.17-.35,.35-.53,.47l-.35,.29c-.06,.06-.12,.06-.18,.06h-2.57v3.27h3.21c.7,0,1.4-.23,1.93-.7,.18-.17,.99-.88,1.98-1.93q.06-.06,.12-.06l8.87-2.57c.35-.18,.47-.06,.47,.12Z"/></svg>