<?xml version="1.0" encoding="UTF-8"?><svg id="Capa_1" xmlns="http://www.w3.org/2000/svg" viewBox="0 0 60 60"><defs><style>.cls-1{fill:#1ed760;}</style></defs><path class="cls-1" d="M41.09,41.35c-.34,.58-.95,.9-1.57,.9-.31,0-.63-.08-.92-.25-4.77-2.79-10.29-3.24-14.08-3.12-4.2,.13-7.27,.96-7.3,.96-.97,.26-1.97-.3-2.23-1.27-.27-.97,.3-1.97,1.27-2.23,.14-.04,3.45-.94,8.05-1.09,2.71-.09,5.32,.1,7.76,.56,3.09,.59,5.9,1.61,8.37,3.05,.87,.51,1.16,1.62,.65,2.49Z"/><path class="cls-1" d="M44.47,34.33c-.4,.68-1.12,1.07-1.86,1.07-.37,0-.74-.09-1.08-.29-5.66-3.31-12.19-3.84-16.68-3.7-4.97,.15-8.61,1.13-8.65,1.14-1.15,.31-2.33-.36-2.64-1.51-.31-1.15,.36-2.33,1.5-2.64,.16-.05,4.09-1.11,9.54-1.29,3.21-.11,6.3,.12,9.19,.67,3.65,.69,6.99,1.91,9.91,3.62,1.03,.6,1.37,1.92,.77,2.94Z"/><path class="cls-1" d="M46.55,27.95c-.45,0-.91-.12-1.33-.36-13.45-7.86-30.89-3.19-31.06-3.14-1.41,.39-2.86-.44-3.25-1.84-.39-1.41,.44-2.86,1.84-3.25,.2-.06,5.01-1.36,11.7-1.58,3.94-.13,7.73,.14,11.27,.82,4.48,.85,8.57,2.34,12.15,4.44,1.26,.74,1.68,2.35,.95,3.61-.49,.84-1.37,1.31-2.28,1.31Z"/></svg>